<?xml version="1.0" encoding="UTF-8"?>
<svg width="32" height="32" viewBox="0 0 32 32" fill="none" xmlns="http://www.w3.org/2000/svg">
  <rect width="32" height="32" rx="8" fill="#0EA5E9"/>
  <path d="M16 6C10.477 6 6 10.477 6 16C6 21.523 10.477 26 16 26C21.523 26 26 21.523 26 16C26 10.477 21.523 6 16 6ZM16.75 20.5H15.25V19H16.75V20.5ZM18.37 14.37L17.53 15.22C16.88 15.87 16.75 16.5 16.75 17H15.25V16.63C15.25 15.83 15.63 15.08 16.28 14.43L17.47 13.23C17.8 12.9 18 12.47 18 12C18 10.9 17.1 10 16 10C14.9 10 14 10.9 14 12H12.5C12.5 10.07 14.07 8.5 16 8.5C17.93 8.5 19.5 10.07 19.5 12C19.5 12.88 19.13 13.68 18.37 14.37Z" fill="white"/>
</svg> 